TITLE ""
FILE "Step1_Track25.mp3" MP3
  TRACK 01 AUDIO
    TITLE "Step1_Track25_01"
    INDEX 01 00:00:00
  TRACK 02 AUDIO
    TITLE "Step1_Track25_02"
    INDEX 01 00:00:24
  TRACK 03 AUDIO
    TITLE "Step1_Track25_03"
    INDEX 01 00:01:72
  TRACK 04 AUDIO
    TITLE "Step1_Track25_04"
    INDEX 01 00:02:60
  TRACK 05 AUDIO
    TITLE "Step1_Track25_05"
    INDEX 01 00:03:56
  TRACK 06 AUDIO
    TITLE "Step1_Track25_06"
    INDEX 01 00:04:02
  TRACK 07 AUDIO
    TITLE "Step1_Track25_07"
    INDEX 01 00:06:17
  TRACK 08 AUDIO
    TITLE "Step1_Track25_08"
    INDEX 01 00:06:68
  TRACK 09 AUDIO
    TITLE "Step1_Track25_09"
    INDEX 01 00:07:67
  TRACK 10 AUDIO
    TITLE "Step1_Track25_10"
    INDEX 01 00:07:69
  TRACK 11 AUDIO
    TITLE "Step1_Track25_11"
    INDEX 01 00:10:07
  TRACK 12 AUDIO
    TITLE "Step1_Track25_12"
    INDEX 01 00:10:46
  TRACK 13 AUDIO
    TITLE "Step1_Track25_13"
    INDEX 01 00:11:45
  TRACK 14 AUDIO
    TITLE "Step1_Track25_14"
    INDEX 01 00:11:47
  TRACK 15 AUDIO
    TITLE "Step1_Track25_15"
    INDEX 01 00:13:70
  TRACK 16 AUDIO
    TITLE "Step1_Track25_16"
    INDEX 01 00:14:32
  TRACK 17 AUDIO
    TITLE "Step1_Track25_17"
    INDEX 01 00:15:35
  TRACK 18 AUDIO
    TITLE "Step1_Track25_18"
    INDEX 01 00:15:41
  TRACK 19 AUDIO
    TITLE "Step1_Track25_19"
    INDEX 01 00:17:50
  TRACK 20 AUDIO
    TITLE "Step1_Track25_20"
    INDEX 01 00:18:02
  TRACK 21 AUDIO
    TITLE "Step1_Track25_21"
    INDEX 01 00:19:08
  TRACK 22 AUDIO
    TITLE "Step1_Track25_22"
    INDEX 01 00:19:21
  TRACK 23 AUDIO
    TITLE "Step1_Track25_23"
    INDEX 01 00:21:48
  TRACK 24 AUDIO
    TITLE "Step1_Track25_24"
    INDEX 01 00:22:02
  TRACK 25 AUDIO
    TITLE "Step1_Track25_25"
    INDEX 01 00:23:09
  TRACK 26 AUDIO
    TITLE "Step1_Track25_26"
    INDEX 01 00:23:21
  TRACK 27 AUDIO
    TITLE "Step1_Track25_27"
    INDEX 01 00:24:75
  TRACK 28 AUDIO
    TITLE "Step1_Track25_28"
    INDEX 01 00:25:42
  TRACK 29 AUDIO
    TITLE "Step1_Track25_29"
    INDEX 01 00:26:49
  TRACK 30 AUDIO
    TITLE "Step1_Track25_30"
    INDEX 01 00:26:68
  TRACK 31 AUDIO
    TITLE "Step1_Track25_31"
    INDEX 01 00:28:61
  TRACK 32 AUDIO
    TITLE "Step1_Track25_32"
    INDEX 01 00:29:26
  TRACK 33 AUDIO
    TITLE "Step1_Track25_33"
    INDEX 01 00:30:04
  TRACK 34 AUDIO
    TITLE "Step1_Track25_34"
    INDEX 01 00:30:45
  TRACK 35 AUDIO
    TITLE "Step1_Track25_35"
    INDEX 01 00:33:06
  TRACK 36 AUDIO
    TITLE "Step1_Track25_36"
    INDEX 01 00:33:35
  TRACK 37 AUDIO
    TITLE "Step1_Track25_37"
    INDEX 01 00:34:44
  TRACK 38 AUDIO
    TITLE "Step1_Track25_38"
    INDEX 01 00:34:64
  TRACK 39 AUDIO
    TITLE "Step1_Track25_39"
    INDEX 01 00:37:37
  TRACK 40 AUDIO
    TITLE "Step1_Track25_40"
    INDEX 01 00:37:74
  TRACK 41 AUDIO
    TITLE "Step1_Track25_41"
    INDEX 01 00:38:70
  TRACK 42 AUDIO
    TITLE "Step1_Track25_42"
    INDEX 01 00:39:26
  TRACK 43 AUDIO
    TITLE "Step1_Track25_43"
    INDEX 01 00:41:27
